<svg xmlns="http://www.w3.org/2000/svg" width="24" height="24" fill="none" viewBox="0 0 44 44"><path stroke="currentColor" stroke-width="3" d="M22 3a20 20 0 0 0-6.32 38.96c1 .19 1.32-.43 1.32-.96v-4.38c-5.56 1.21-6.72-1.7-6.72-1.7C9.37 32.62 8.06 32 8.06 32c-1.82-1.24.13-1.22.13-1.22 2.01.14 3.07 2.06 3.07 2.06 1.78 3.06 4.68 2.18 5.82 1.66.18-1.29.7-2.17 1.27-2.67-4.44-.5-9.11-2.22-9.11-9.88 0-2.18.78-3.97 2.06-5.37-.2-.5-.9-2.54.2-5.29 0 0 1.67-.53 5.5 2.05a19.19 19.19 0 0 1 10.01 0c3.82-2.58 5.5-2.05 5.5-2.05a7.3 7.3 0 0 1 .2 5.3 7.72 7.72 0 0 1 2.05 5.36c0 7.68-4.68 9.37-9.13 9.86.71.62 1.37 1.84 1.37 3.7v5.5c0 .52.32 1.15 1.34.95A20 20 0 0 0 22 3Z"/></svg>
