<svg xmlns="http://www.w3.org/2000/svg" width="24" height="24" fill="none" viewBox="0 0 44 44"><g clip-path="url(#a)"><mask id="b" width="44" height="44" x="0" y="0" maskUnits="userSpaceOnUse" style="mask-type:alpha"><path fill="#fff" fill-rule="evenodd" d="M44 0H0v44h44V0ZM22.5 16a1.5 1.5 0 1 0 0-3 1.5 1.5 0 0 0 0 3Z" clip-rule="evenodd"/></mask><g stroke="currentColor" mask="url(#b)"><path stroke-width="3" d="M19.84 3.13 3.12 19.85a3 3 0 0 0 0 4.24l16.72 16.72a3 3 0 0 0 4.25 0L40.8 24.1a3 3 0 0 0 0-4.24L24.09 3.13a3 3 0 0 0-4.25 0Z"/><path stroke-width="2.6" d="m16.5 5 4.15 4.23a4 4 0 0 1 5.13 5.05l3.97 3.92a4 4 0 1 1-2.52 2.47L24 17.49v11.05c1.48.9 2 1.96 2 3.46a4 4 0 1 1-8 0c.19-1.72.57-2.51 2-3.46V16.46c-1.52-1.1-1.85-1.9-2-3.46 0-.54.08-.82.22-1.3L14 7.5"/></g></g><defs><clipPath id="a"><path fill="#fff" d="M0 0h44v44H0z"/></clipPath></defs></svg>
